<svg xmlns="http://www.w3.org/2000/svg" width="36" height="36" viewBox="0 0 36 36">
    <g fill="none" fill-rule="evenodd">
        <circle cx="18" cy="18" r="18" fill="#1665B8"/>
        <path fill="#FFF" d="M23.309 10.507c-.66.684-1.34 1.352-1.976 2.057-.507.562-1.035.75-1.731.637-3.078-.503-6.167-.967-9.253-1.441-.78-.12-2.087.69-2.367 1.469-.13.36.104.481.362.599 1.805.819 3.606 1.645 5.407 2.47.686.315 1.374.627 2.055.95.52.248.559.443.13.891a600.098 600.098 0 0 1-3.874 4.014c-.344.354-.754.513-1.218.475-.449-.036-.904-.04-1.35-.088-.658-.07-1.205.141-1.68.696-.453.532-.446.746.135 1.038.74.372 1.478.75 2.235 1.09.558.251.954.639 1.228 1.18.383.758.784 1.505 1.19 2.248.29.53.522.524 1.009.074.55-.508.733-1.067.656-1.755-.26-2.314-.352-1.83 1.296-3.57.915-.967 1.844-1.921 2.776-2.872.565-.576.721-.563 1.043.077 1.186 2.36 2.365 4.725 3.547 7.088.365.73.489.704 1.16.108.841-.744 1.08-1.489.855-2.528-.632-2.909-1.129-5.863-1.707-8.79-.125-.63.057-1.104.533-1.588 1.407-1.432 2.8-2.879 4.18-4.336.693-.733.853-1.638.47-2.332-.363-.66-1.143-.944-1.954-.715-.43.121-.777.381-1.089.71-.349.368-.703.73-1.056 1.095l-1.012 1.05"/>
    </g>
</svg>
