<svg xmlns="http://www.w3.org/2000/svg" width="26" height="27" viewBox="0 0 26 27">
    <path fill="#FFF" fill-rule="evenodd" d="M19.41 4.227c-.788.816-1.598 1.612-2.357 2.453-.605.67-1.232.896-2.058.765-3.65-.58-7.314-1.115-10.974-1.663-.925-.138-2.48.83-2.817 1.757-.156.428.12.571.427.71 2.137.962 4.27 1.934 6.404 2.904.813.37 1.627.737 2.434 1.118.617.29.66.521.15 1.056A721.871 721.871 0 0 1 6 18.112c-.41.423-.897.614-1.448.571-.532-.04-1.072-.043-1.6-.097-.782-.08-1.433.173-1.998.835-.542.633-.534.888.154 1.232.876.437 1.75.882 2.647 1.282.661.295 1.13.753 1.451 1.395.45.898.923 1.782 1.401 2.662.34.627.616.62 1.197.083.656-.607.875-1.27.788-2.088-.296-2.745-.409-2.171 1.556-4.245a276.567 276.567 0 0 1 3.31-3.423c.674-.687.86-.673 1.238.085C16.09 19.2 17.477 22 18.867 24.8c.43.865.577.834 1.378.123 1.001-.888 1.289-1.773 1.026-3.006-.734-3.45-1.308-6.955-1.98-10.427-.144-.747.075-1.311.642-1.889a385.592 385.592 0 0 0 4.983-5.17c.828-.873 1.022-1.948.57-2.77C25.06.88 24.136.546 23.172.821c-.51.146-.924.457-1.295.849-.417.438-.84.87-1.26 1.306l-1.207 1.25"/>
</svg>
