<svg xmlns="http://www.w3.org/2000/svg" width="29" height="26" viewBox="0 0 29 26">
    <g fill="#555" fill-rule="nonzero">
        <path d="M24.288 0H0v26h29V0h-4.712zM4.833 1.061h23.2v2.653H.967V1.061h3.866zM.967 24.94V4.776h27.066v20.163H.967z"/>
        <circle cx="10.5" cy="8.5" r="1"/>
        <circle cx="14.5" cy="8.5" r="1"/>
        <circle cx="18.5" cy="8.5" r="1"/>
        <circle cx="20.5" cy="8.5" r="1"/>
        <circle cx="24.5" cy="8.5" r="1"/>
        <circle cx="3.5" cy="12.5" r="1"/>
        <circle cx="7.5" cy="12.5" r="1"/>
        <circle cx="10.5" cy="12.5" r="1"/>
        <circle cx="14.5" cy="12.5" r="1"/>
        <circle cx="18.5" cy="12.5" r="1"/>
        <circle cx="20.5" cy="12.5" r="1"/>
        <circle cx="24.5" cy="12.5" r="1"/>
        <circle cx="3.5" cy="16.5" r="1"/>
        <circle cx="7.5" cy="16.5" r="1"/>
        <circle cx="10.5" cy="16.5" r="1"/>
        <circle cx="14.5" cy="16.5" r="1"/>
        <circle cx="18.5" cy="16.5" r="1"/>
        <circle cx="20.5" cy="16.5" r="1"/>
        <circle cx="24.5" cy="16.5" r="1"/>
        <circle cx="3.5" cy="20.5" r="1"/>
        <circle cx="7.5" cy="20.5" r="1"/>
        <circle cx="10.5" cy="20.5" r="1"/>
        <circle cx="14.5" cy="20.5" r="1"/>
        <circle cx="18.5" cy="20.5" r="1"/>
    </g>
</svg>
