<svg xmlns="http://www.w3.org/2000/svg" width="38" height="30" viewBox="0 0 38 30">
    <g fill="none" fill-rule="evenodd">
        <path d="M34.063 28.604c1.306 0 2.386-1.026 2.386-2.304V6.046c0-1.278-1.08-2.304-2.386-2.304H10.295a.708.708 0 0 1-.214 0H3.933c-.072 0-.144.003-.213.01a.697.697 0 0 1-.186.023c-1.112.184-1.983 1.127-1.983 2.27V26.3c0 1.279 1.075 2.304 2.382 2.304h30.13zm-2.02-23.316c1.152 0 2.086.907 2.086 1.995 0 1.086-.934 1.992-2.085 1.992-1.152 0-2.086-.906-2.086-1.992 0-1.088.934-1.996 2.086-1.996zM30.357 25.85h2.271c.29 0 .5-.013.611-.033a.8.8 0 0 0 .07-.015c.002-.035.07-.24.07-.732v-4.453c-.005-.345.287-.63.653-.634h.02c.365.005.658.289.653.634v4.454c0 .658.002 1.183-.44 1.61-.222.213-.513.318-.781.365a4.855 4.855 0 0 1-.856.054h-2.29c-.366-.005-.658-.289-.653-.634.005-.345.306-.621.672-.616zM19 6.33c5.757 0 10.437 4.412 10.437 9.84 0 5.43-4.68 9.847-10.437 9.847-5.758 0-10.441-4.417-10.441-9.846 0-5.43 4.684-9.842 10.441-9.842zM9.527 2.467c0-.6-.496-1.071-1.1-1.071h-3.12c-.605 0-1.105.472-1.105 1.07v.026h5.325v-.025z"/>
        <path d="M32.044 8.025c.421 0 .76-.32.76-.742a.741.741 0 0 0-.76-.746.741.741 0 0 0-.76.746c0 .423.338.742.76.742zM19 24.767c5.041 0 9.111-3.842 9.111-8.596S24.041 7.579 19 7.579c-5.042 0-9.116 3.838-9.116 8.592 0 4.754 4.075 8.596 9.116 8.596zm-5.25-8.614c.006-.345.307-.62.673-.616.366.005.659.289.653.634 0 2.107 1.752 3.783 3.924 3.783 2.167 0 3.924-1.677 3.924-3.783 0-2.102-1.757-3.78-3.924-3.78h-.019c-.365-.004-.658-.288-.653-.633.005-.345.306-.62.672-.616 2.896 0 5.25 2.264 5.25 5.029 0 2.769-2.354 5.033-5.25 5.033-2.9 0-5.25-2.265-5.25-5.033v-.018z"/>
        <path fill="#FFF" fill-rule="nonzero" d="M19 26.017c5.758 0 10.437-4.417 10.437-9.846 0-5.43-4.68-9.842-10.437-9.842S8.559 10.741 8.559 16.171c0 5.43 4.683 9.846 10.441 9.846zm0-18.438c5.042 0 9.111 3.838 9.111 8.592 0 4.754-4.07 8.596-9.111 8.596s-9.116-3.842-9.116-8.596S13.958 7.579 19 7.579z"/>
        <path fill="#FFF" fill-rule="nonzero" d="M19 21.204c2.896 0 5.25-2.264 5.25-5.033 0-2.765-2.354-5.03-5.25-5.03-.366-.004-.667.271-.672.617-.005.345.287.63.653.634H19c2.167 0 3.924 1.677 3.924 3.779 0 2.106-1.757 3.783-3.924 3.783-2.172 0-3.924-1.676-3.924-3.783.006-.345-.287-.63-.653-.634-.366-.005-.667.27-.672.616v.018c0 2.768 2.349 5.033 5.249 5.033zM32.044 9.275c1.151 0 2.085-.906 2.085-1.992 0-1.088-.934-1.996-2.085-1.996-1.152 0-2.086.908-2.086 1.996 0 1.086.934 1.992 2.086 1.992zm0-2.738c.421 0 .76.318.76.746a.742.742 0 0 1-.76.742.742.742 0 0 1-.76-.742c0-.428.338-.746.76-.746z"/>
        <path fill="#FFF" fill-rule="nonzero" d="M34.063 29.854c2.043 0 3.712-1.607 3.712-3.554V6.046c0-1.948-1.669-3.554-3.712-3.554h-23.21v-.025C10.852 1.2 9.765.146 8.425.146h-3.12c-1.339 0-2.43 1.052-2.43 2.32v.175C1.343 3.08.227 4.448.227 6.046V26.3c0 1.946 1.663 3.554 3.707 3.554h30.13zM4.203 2.467c0-.599.5-1.071 1.104-1.071h3.12c.604 0 1.1.47 1.1 1.07v.026H4.202v-.025zM1.55 26.3V6.046c0-1.144.871-2.087 1.983-2.271a.697.697 0 0 0 .186-.024c.069-.006.14-.01.213-.01h6.148c.071.011.144.011.214 0h23.768c1.306 0 2.386 1.027 2.386 2.305V26.3c0 1.277-1.08 2.304-2.386 2.304H3.933c-1.307 0-2.382-1.025-2.382-2.304z"/>
        <path fill="#FFF" fill-rule="nonzero" d="M30.337 27.1h2.29c.318 0 .589-.006.856-.054.268-.047.56-.152.78-.366.443-.426.441-.95.441-1.61v-4.453c.005-.345-.287-.63-.653-.634h-.02c-.366.005-.658.289-.652.634v4.454c0 .492-.069.696-.07.731a.8.8 0 0 1-.07.016c-.112.02-.322.032-.612.032h-2.271c-.366-.005-.667.271-.672.617-.006.344.287.628.653.633z"/>
    </g>
</svg>
