<svg xmlns="http://www.w3.org/2000/svg" width="37" height="30" viewBox="0 0 37 30">
    <path fill="#FFF" fill-rule="nonzero" d="M34.584 11.912c1.137-.097 1.99-1.02 1.99-2.236 0-1.216-.995-2.237-2.18-2.237h-2.037l-1.184-4.035C30.652 1.556 28.757.097 26.862 0H10.09C8.196.097 6.348 1.556 5.78 3.404L4.595 7.439H2.558C1.374 7.44.38 8.46.38 9.676c0 1.167.9 2.14 1.99 2.236C.995 12.593 0 14.003 0 15.705v7.488c0 .972.758 1.702 1.658 1.75v3.696c0 .729.569 1.361 1.327 1.361h2.7c.71 0 1.327-.583 1.327-1.361v-3.647h22.976v3.647c0 .729.569 1.361 1.327 1.361h2.7c.711 0 1.327-.583 1.327-1.361v-3.696A1.745 1.745 0 0 0 37 23.193v-7.488c-.095-1.653-1.042-3.112-2.416-3.793zM7.059 3.89c.379-1.313 1.848-2.431 3.174-2.431h16.44c1.326 0 2.794 1.118 3.173 2.43l1.658 6.079H5.401L7.059 3.89zM5.732 19.4c-1.184 0-2.179-.972-2.179-2.236 0-1.216.948-2.237 2.18-2.237 1.184 0 2.179.973 2.179 2.237-.048 1.264-.995 2.236-2.18 2.236zm18.477 2.48H12.744v-2.966h11.465v2.966zm4.88-4.716c0-1.216.947-2.237 2.179-2.237 1.184 0 2.179.973 2.179 2.237 0 1.215-.948 2.236-2.18 2.236-1.231 0-2.179-.972-2.179-2.236z"/>
</svg>
