<svg xmlns="http://www.w3.org/2000/svg" width="61" height="30" viewBox="0 0 61 30">
    <g fill="#FFF" fill-rule="nonzero">
        <path d="M46.413 11.667h-2.387l-2.123-3.334H26.388l-1.061-1.666H23.87V5l-5.305-3.333L14.587 0l-1.06 6.667h-1.592l-3.183 5H6.63l-4.243 6.666H0L2.652 30h47.74L61 18.333H50.657l-4.244-6.666zm-30.82-9.489l2.463 1.032 4.487 2.82v.637H14.88l.714-4.489zM7.267 13.333h5.994v-1.666H10.45l2.123-3.334h12.119L25.752 10h15.516l1.062 1.667H27.848v1.666h17.929L46.837 15H33.152v1.667h14.745l1.06 1.666H4.087l3.181-5zM57.471 20l-7.578 8.333H3.652L2.895 25h5.062v-1.667H2.516L1.758 20h55.713z"/>
        <path d="M38.457 23.333h10.609V25H38.457zM35.804 23.333h1.326V25h-1.326zM9.283 23.333h1.326V25H9.283zM23.87 11.667h1.326v1.667H23.87zM19.891 11.667h1.326v1.667h-1.326zM15.913 11.667h1.326v1.667h-1.326zM29.174 15H30.5v1.667h-1.326zM25.196 15h1.326v1.667h-1.326zM21.217 15h1.326v1.667h-1.326zM17.239 15h1.326v1.667h-1.326zM13.261 15h1.326v1.667h-1.326zM9.283 15h1.326v1.667H9.283z"/>
    </g>
</svg>
