<svg xmlns="http://www.w3.org/2000/svg" width="36" height="30" viewBox="0 0 36 30">
    <g fill="#000" fill-rule="nonzero">
        <path d="M18 0C13.2 0 8.677 1.577 5.262 4.385 1.846 7.192 0 11 0 15s1.892 7.77 5.262 10.615C8.63 28.462 13.2 30 18 30s9.323-1.577 12.738-4.385C34.154 22.808 36 19 36 15s-1.892-7.77-5.262-10.615C27.37 1.538 22.8 0 18 0zm10.108 23.423c-2.677 2.27-6.277 3.5-10.108 3.5-3.83 0-7.43-1.23-10.108-3.5-2.723-2.23-4.2-5.23-4.2-8.423 0-3.192 1.477-6.192 4.2-8.423 2.677-2.27 6.277-3.5 10.108-3.5 3.83 0 7.43 1.23 10.108 3.5 2.723 2.23 4.2 5.23 4.2 8.423 0 3.192-1.477 6.192-4.2 8.423z"/>
        <path d="M19.338 13.962v-2.808c.877.154 1.57.5 2.124 1l.461.423 1.8-1.462-.508-.423c-1.015-.846-2.353-1.346-3.923-1.538V7.692h-2.354v1.462c-2.584.27-4.338 1.577-4.338 3.27 0 2.153 2.354 2.807 4.338 3.23v3.23c-1.43-.23-2.353-.846-2.815-1.23l-.508-.423-1.753 1.5.461.384c1.108.962 2.723 1.616 4.57 1.77v1.423h2.353v-1.423c3.277-.347 4.43-1.962 4.43-3.462.093-2.308-2.491-3.077-4.338-3.461zm0 4.923v-2.731c1.293.346 1.8.73 1.8 1.346 0 .27-.138 1.115-1.8 1.385zm-2.353-7.77v2.308c-1.2-.308-1.662-.615-1.662-1.077 0-.538.646-1.038 1.662-1.23z"/>
    </g>
</svg>
