<svg xmlns="http://www.w3.org/2000/svg" width="39" height="27" viewBox="0 0 39 27">
    <path fill="#FFF" fill-rule="nonzero" d="M36.987 11.44V2.423c0-1.236-1.071-2.242-2.389-2.242H4.402c-1.318 0-2.39 1.006-2.39 2.242v9.019C.876 11.603 0 12.527 0 13.639v5.583c0 .39.337.706.752.706h.806v3.482c0 .39.337.705.752.705H3.67v1.36c0 .39.336.705.752.705.415 0 .752-.316.752-.705v-1.36h28.654v1.36c0 .39.337.705.752.705.416 0 .753-.316.753-.705v-1.36h1.358c.415 0 .752-.316.752-.705v-3.482h.806c.415 0 .752-.316.752-.706v-5.583c0-1.112-.875-2.036-2.013-2.198zM3 2.94c0-.419.397-.76.885-.76h30.23c.488 0 .885.341.885.76v8.24h-2.644a67.8 67.8 0 0 0 1.615-1.545.58.58 0 0 0 0-.849c-2.179-2.15-4.003-3.716-6.506-5.586a.849.849 0 0 0-.989 0c-2.503 1.87-4.327 3.436-6.506 5.586a.58.58 0 0 0 0 .85c.554.547 1.09 1.058 1.616 1.544h-5.172a67.8 67.8 0 0 0 1.616-1.545.58.58 0 0 0 0-.849C15.85 6.636 14.027 5.07 11.523 3.2a.849.849 0 0 0-.988 0C8.03 5.07 6.207 6.637 4.028 8.786a.58.58 0 0 0 0 .85c.555.546 1.09 1.058 1.616 1.544H3V2.94zm21.15 8.24A61.57 61.57 0 0 1 22 9.102a56.848 56.848 0 0 1 5.5-4.922A56.85 56.85 0 0 1 33 9.102a61.48 61.48 0 0 1-2.15 2.078h-6.7zm-16 0A61.652 61.652 0 0 1 6 9.102a56.861 56.861 0 0 1 5.5-4.922A56.861 56.861 0 0 1 17 9.102a61.472 61.472 0 0 1-2.15 2.078h-6.7zm27.85 12H3v-3h33v3zm1-5H1v-5.143c0-.472.389-.857.866-.857h34.268c.477 0 .866.385.866.857v5.143z"/>
</svg>
