<svg xmlns="http://www.w3.org/2000/svg" width="133" height="130" viewBox="0 0 133 130">
    <path d="M132.99 66.742c.27 14.332-5.121 28.92-14.825 40.436-9.704 11.517-23.99 19.195-39.354 21.754-15.365 2.815-31.807 0-45.285-7.678-13.747-7.422-24.53-19.706-29.65-34.038-5.122-14.332-5.392-30.455.539-44.787 5.93-14.332 16.981-26.616 31.537-34.294C43.23 4.296 51.047 1.993 59.133.713 67.22-.31 75.576-.31 83.663 1.225c16.173 3.071 31.267 12.029 41.51 24.57 2.696 3.326 2.157 8.189-1.347 10.748-3.505 2.56-8.626 2.047-11.322-1.28 0 0 0-.256-.27-.256-7.547-9.98-18.868-17.402-31.806-20.218-6.47-1.535-12.939-1.791-19.677-1.28-6.47.768-12.939 2.304-18.869 5.375-11.86 5.63-21.834 15.612-26.955 27.384-5.391 11.773-5.93 25.593-1.887 37.877C17.083 96.685 25.98 107.69 37.84 114.6c11.59 7.166 26.146 10.237 40.163 8.19 14.017-1.792 27.225-8.446 36.659-18.683 9.434-10.237 15.095-23.545 15.364-37.365 0-.768.809-1.535 1.618-1.535.539 0 1.347.767 1.347 1.535z"/>
</svg>
