<svg xmlns="http://www.w3.org/2000/svg" width="54" height="54" viewBox="0 0 54 54">
    <g fill="#73E184" fill-rule="nonzero">
        <path stroke="#73E184" stroke-width="2" d="M27 1C12.648 1 1 12.648 1 27s11.648 26 26 26 26-11.648 26-26S41.352 1 27 1zm0 50.076C13.74 51.076 2.924 40.26 2.924 27S13.74 2.924 27 2.924 51.076 13.74 51.076 27 40.26 51.076 27 51.076z"/>
        <path d="M34.124 12.232l-.78.208c-.468.156-11.96 3.588-16.224 12.844-1.144 2.392-1.248 5.096-.312 7.592.78 2.184 2.288 3.952 4.264 5.148l-1.664 3.224s-.052.052-.052.104c-.26.572.052 1.248.624 1.508s1.248-.052 1.508-.624l1.404-3.328a9.862 9.862 0 0 0 3.276.572 9.984 9.984 0 0 0 3.432-.624 10.11 10.11 0 0 0 5.616-5.148c4.42-9.516-.416-20.28-.624-20.696l-.468-.78zm-.728 20.644a7.92 7.92 0 0 1-4.524 4.16c-1.716.624-3.536.624-5.252.104l6.448-15.392c.052-.156 0-.312-.156-.364a.404.404 0 0 0-.416.104l-7.592 14.82c-1.508-.936-2.704-2.34-3.328-4.056a8.088 8.088 0 0 1 .26-6.136c3.328-7.124 11.596-10.556 14.196-11.544 1.04 2.6 3.744 10.972.364 18.304z"/>
    </g>
</svg>
