<svg xmlns="http://www.w3.org/2000/svg" width="36" height="37" viewBox="0 0 36 37">
    <g fill="#000" fill-rule="nonzero">
        <path d="M18 .5C8.058.5 0 8.558 0 18.5s8.058 18 18 18c9.94 0 18-8.058 18-18S27.94.5 18 .5zm0 33c-8.285 0-15-6.715-15-15s6.715-15 15-15c8.284 0 15 6.715 15 15s-6.716 15-15 15z"/>
        <path d="M23 7h-9c-1.65 0-3 1.35-3 3v18c0 1.65 1.35 3 3 3h9c1.65 0 3-1.35 3-3V10c0-1.65-1.35-3-3-3zm-4.5 21a1.5 1.5 0 1 1 0-3 1.5 1.5 0 0 1 0 3zm4.5-6h-9V10h9v12z"/>
    </g>
</svg>
